<?xml version="1.0" standalone="no"?>
<!DOCTYPE svg PUBLIC "-//W3C//DTD SVG 20010904//EN"
 "http://www.w3.org/TR/2001/REC-SVG-20010904/DTD/svg10.dtd">
<svg version="1.0" xmlns="http://www.w3.org/2000/svg"
 width="512.000000pt" height="512.000000pt" viewBox="0 0 512.000000 512.000000"
 preserveAspectRatio="xMidYMid meet">
<metadata>
Created by potrace 1.14, written by Peter Selinger 2001-2017
</metadata>
<g transform="translate(0.000000,512.000000) scale(0.100000,-0.100000)"
fill="#000000" stroke="none">
<path d="M1306 4685 c-218 -36 -390 -196 -439 -410 -11 -49 -13 -279 -12
-1310 2 -1371 -2 -1270 62 -1401 32 -67 129 -169 197 -209 26 -15 81 -38 123
-51 l77 -24 1662 0 c1193 0 1677 3 1715 11 210 44 384 222 419 429 8 46 10
433 8 1310 l-3 1245 -29 70 c-40 96 -69 140 -141 207 -67 64 -177 118 -272
134 -66 12 -3299 10 -3367 -1z m3332 -433 c58 -33 55 6 56 -824 1 -418 -3
-762 -7 -765 -4 -2 -18 8 -30 23 -19 24 -71 85 -310 364 -12 14 -98 114 -191
223 -105 122 -187 208 -215 226 -135 85 -298 82 -424 -9 -25 -17 -69 -61 -98
-97 -30 -36 -58 -71 -64 -77 -11 -12 -150 -179 -175 -210 -8 -10 -20 -23 -25
-30 -6 -6 -98 -117 -205 -246 -194 -234 -222 -268 -270 -322 l-25 -29 -150
149 c-156 155 -198 184 -293 205 -92 21 -162 11 -257 -35 -24 -12 -164 -143
-357 -336 l-318 -317 0 1018 c0 1121 -3 1064 61 1091 44 19 3264 17 3297 -2z"/>
<path d="M1790 4031 c-290 -93 -391 -455 -190 -684 79 -90 181 -138 303 -143
129 -5 225 33 317 125 266 265 77 723 -298 720 -45 0 -100 -7 -132 -18z"/>
<path d="M520 3178 c0 -8 -9 -44 -21 -79 -12 -35 -23 -71 -24 -79 -2 -8 -61
-204 -130 -435 -70 -231 -128 -427 -130 -435 -6 -25 -174 -582 -192 -635 -19
-60 -26 -184 -12 -245 29 -134 111 -250 229 -321 49 -30 113 -51 320 -104 28
-8 274 -73 595 -159 176 -47 363 -97 415 -111 52 -14 109 -30 127 -36 18 -5
40 -12 50 -13 26 -5 72 -18 423 -113 173 -47 320 -86 325 -88 24 -5 80 -20
230 -61 88 -23 194 -52 235 -62 41 -11 221 -59 400 -107 245 -66 344 -89 402
-91 129 -6 239 34 335 120 65 59 105 122 137 216 54 164 195 614 192 617 -1 2
-718 3 -1592 3 -1323 0 -1598 3 -1641 14 -29 8 -53 13 -53 11 0 -7 -106 33
-160 60 -181 91 -314 237 -388 425 -12 30 -24 64 -27 75 -2 11 -10 38 -16 60
-8 28 -12 263 -13 807 -2 422 -6 771 -9 775 -4 3 -7 0 -7 -9z"/>
</g>
</svg>
